<svg xmlns="http://www.w3.org/2000/svg" viewBox="4413.18 2514.01 2070.02 2384.77" width="2070" height="2385" fill="none">
  <path fill="#FFFFFF" fill-rule="evenodd" d="M6248.65 3106.2c5.86,18.8 1.8,528.27 -0.67,584.82 -13.45,308 -179.89,594.8 -405.44,775.68 -74.05,59.39 -187.17,127.3 -281.72,161.85 -20.96,7.66 -92.65,35.13 -111.76,35.87 -35.06,1.36 -182.78,-64.32 -212.81,-79.77 -332.87,-171.25 -559.78,-496.6 -587.89,-888.42 -6.64,-92.63 -2.68,-198.1 -2.68,-293.1 0,-98.73 -0.64,-197.67 -0.03,-296.37 86.52,-10.01 160.26,-21.16 240.88,-41.94 74.96,-19.32 144.38,-45.3 209.9,-73.17 90.37,-38.45 193.14,-97.27 270.43,-155.16 12.66,-9.48 28.89,-21.47 40.56,-30.8 54.54,-43.56 24.55,-40.74 121.52,31.04 137.31,101.63 309.14,183.14 476.04,227.06 101.71,26.77 143.22,29.25 243.69,42.4zm-712.84 165.91l132.23 -65.95 0 339.68 -132.23 92 0 -365.72zm-24.96 669.44l226.19 265.01 -227.43 0.09 -134.13 -153.78 135.37 -111.32zm-351.34 42.76l508.52 -387.93 0 174.51 -508.67 427.7 0.15 -214.28zm3.82 -428.92l132.23 -65.95 0 339.68 -132.23 92 0 -365.73zm186.61 -161.87l132.23 -65.96 0 339.68 -132.23 92 0 -365.72zm83.76 -791.52c-34.02,7.69 -48.92,31.83 -73.78,54.25 -116.76,105.31 -256.26,182.91 -406.98,234.98 -89.79,31.02 -219.86,62 -316.76,68.98 -35.7,2.57 -84.5,1.22 -107.8,19.07 -31.76,24.34 -28.98,48.8 -28.96,97.64l0 387.39c0,167.72 -5.85,307.31 40.29,471.28 17.95,63.8 40.64,133.29 67.41,190.06 138.41,293.47 349.25,503.13 655.4,631.44 36.9,15.46 156.7,62.54 201.63,54.85 53.39,-9.14 139.91,-43.25 190.82,-64.03 56.87,-23.21 119.55,-57.61 168.63,-88.58 78,-49.23 152.84,-108.48 214.06,-170.81l62.19 -67.73c119.91,-130.23 218.65,-329.49 261.8,-507.35 18.33,-75.56 25.32,-142.7 33.62,-223.39 3.52,-34.26 1.16,-465.17 1.16,-511.19 0,-42.48 -0.02,-84.96 0.03,-127.44 0.15,-107.08 -83.31,-83.52 -162.92,-93.8 -257.68,-33.25 -443.02,-110.64 -642.96,-259 -24.07,-17.87 -46.33,-36.54 -69.92,-57.61 -23.34,-20.85 -44.17,-48.69 -86.97,-39.02z"></path>
</svg>
