<svg width="228" height="248" viewBox="0 0 228 248" fill="none" xmlns="http://www.w3.org/2000/svg">
<path fill-rule="evenodd" clip-rule="evenodd" fill="#670099" d="M140.09 166.15L114.88 141L137.69 118.2L185.69 166.2L203.27 183.77C217.881 165.068 226.275 142.263 227.278 118.552C228.28 94.84 221.84 71.4087 208.86 51.54C208.27 50.64 207.67 49.76 207.06 48.88C195.515 32.2874 179.772 19.0569 161.44 10.54C146.482 3.59855 130.19 0.00169906 113.7 0C109.064 0.00150634 104.432 0.282013 99.8298 0.84C79.3211 3.32751 59.8868 11.3897 43.6398 24.15C35.1342 30.8125 27.6161 38.6471 21.3098 47.42C20.3498 48.7533 19.4198 50.0867 18.5198 51.42C7.98202 67.5618 1.71464 86.1145 0.304923 105.34C-1.1048 124.565 2.38929 143.834 10.4598 161.34C11.1998 162.94 11.9765 164.52 12.7898 166.08C14.0498 168.5 15.3998 170.88 16.7898 173.2C28.8519 192.779 46.5436 208.261 67.5498 217.62C73.0178 220.067 78.6724 222.073 84.4598 223.62L99.7598 226.33L103.16 226.93L221.79 247.88L180 206.06L140.09 166.15ZM67.5698 51.48H99.8198V72.08L95.6998 76.2L72.8898 99L67.5698 104.32V51.48ZM99.8198 135.89V166.14H67.5698V122.53L81.9998 108.1L99.8198 90.3L104.82 85.3L138.67 51.48H184.29L127.64 108.1L104.83 130.9L99.8198 135.89Z"/>
</svg>
